:version 1.10
:name ASF
:units
  mass 1
  length 1
  angle deg
:documentation
  ASF file generated by Kaydara
:root
  axis xyz
  order  tx ty tz rx ry rz
  position 0 0 0
  orientation 0 0 0
:bonedata
  begin
    id 1
    name RightUpLegDummy
    direction -0.718183 -0.695806 0.00816078
    length 4.904
    axis 0 0 0 xyz
  end
  begin
    id 2
    name RightUpLeg
    direction -0.00334265 -0.999142 0.0412837
    length 17.4976
    axis -0.59612 0.00940841 -0.192072 xyz
    dof rx ry rz
  end
  begin
    id 3
    name RightLeg
    direction 0.000365068 -0.988824 -0.149089
    length 16.5821
    axis 6.58657 0.0604092 -0.318554 xyz
    dof rx ry rz
  end
  begin
    id 4
    name RightFoot
    direction 0.00079069 -0.460991 0.887405
    length 3.77069
    axis 0.000105557 -0.120464 -0.188919 xyz
    dof rx ry rz
  end
  begin
    id 5
    name RightToes
    direction 0.00124768 -0.014065 0.9999
    length 3.85082
    axis 0.00053932 0.542178 -0.142707 xyz
    dof rx ry rz
  end
  begin
    id 6
    name SpineDummy
    direction 8.3039e-015 1 4.58682e-016
    length 4.6813
    axis 0 0 0 xyz
  end
  begin
    id 7
    name Spine
    direction 4.12799e-006 0.999988 0.00494944
    length 10.1015
    axis -0.00149944 0.000129667 -0.000235877 xyz
    dof rx ry rz
  end
  begin
    id 8
    name Spine1
    direction 0 0 0
    length 0
    axis -0.00160567 0.000129431 -0.000308381 xyz
    dof rx ry rz
  end
  begin
    id 9
    name HEadDummy
    direction 5.38513e-006 0.999999 0.00127044
    length 3.43865
    axis -0.00160567 0.000129431 -0.000308381 xyz
  end
  begin
    id 10
    name HEad
    direction -0.0226495 0.980942 0.192974
    length 5.12695
    axis -0.00160642 -0.114462 -0.000307946 xyz
    dof rx ry rz
  end
  begin
    id 11
    name LeftShoulder1Dummy
    direction 0.99889 -0.0402564 -0.0244456
    length 3.5433
    axis -0.00160567 0.000129431 -0.000308381 xyz
  end
  begin
    id 12
    name LeftShoulder1
    direction 0.999464 -0.00142945 0.0326977
    length 4.05031
    axis 0.393425 -0.0796525 -0.0507861 xyz
    dof rx ry rz
  end
  begin
    id 13
    name LeftArm
    direction 0.998564 -0.000899612 -0.053557
    length 10.3537
    axis -22.9476 0.126974 0.960871 xyz
    dof rx ry rz
  end
  begin
    id 14
    name LeftForeArm
    direction 0.998903 0.00865904 0.0460121
    length 8.70632
    axis -9.91856 -0.0656997 -0.178106 xyz
    dof rx ry rz
  end
  begin
    id 15
    name LeftHand
    direction 0.992938 -0.0411687 0.11126
    length 5.32135
    axis -0.00981066 -0.00340928 0.18486 xyz
    dof rx ry rz
  end
  begin
    id 16
    name RightShoulderDummy
    direction -0.998891 -0.0402456 -0.0244411
    length 3.5433
    axis -0.00160567 0.000129431 -0.000308381 xyz
  end
  begin
    id 17
    name RightShoulder
    direction -0.999353 -0.00388479 0.0357579
    length 4.05031
    axis 1.48787 0.256014 0.157284 xyz
    dof rx ry rz
  end
  begin
    id 18
    name RightArm
    direction -0.998583 -0.000660455 -0.0532032
    length 10.3947
    axis -22.4211 -0.109147 -0.943573 xyz
    dof rx ry rz
  end
  begin
    id 19
    name RightForeArm
    direction -0.998898 0.00868588 0.0461311
    length 8.68355
    axis -9.92343 0.0658342 0.178556 xyz
    dof rx ry rz
  end
  begin
    id 20
    name RightHand
    direction -0.992843 -0.0414545 0.112004
    length 5.28593
    axis -0.00982288 0.00332907 -0.185539 xyz
    dof rx ry rz
  end
  begin
    id 21
    name LeftUpLegDummy
    direction 0.718183 -0.695806 0.00816078
    length 4.904
    axis 0 0 0 xyz
  end
  begin
    id 22
    name LeftUpLeg
    direction 0.00445374 -0.999139 0.0412407
    length 17.4976
    axis -0.593655 -0.0138231 0.255969 xyz
    dof rx ry rz
  end
  begin
    id 23
    name LeftLeg
    direction -0.00154847 -0.988829 -0.149046
    length 16.5821
    axis 6.5841 -0.0555156 0.250722 xyz
    dof rx ry rz
  end
  begin
    id 24
    name LeftFoot
    direction -0.00417678 -0.460985 0.887398
    length 3.77069
    axis 5.53694e-005 4.88088e-005 -0.000136194 xyz
    dof rx ry rz
  end
  begin
    id 25
    name LeftToes
    direction 0.00818061 -0.00485256 0.999955
    length 3.85048
    axis 6.41179e-005 4.88477e-005 -0.000136145 xyz
    dof rx ry rz
  end
:hierarchy
  begin
    root RightUpLegDummy SpineDummy LeftUpLegDummy
    RightUpLegDummy RightUpLeg
    RightUpLeg RightLeg
    RightLeg RightFoot
    RightFoot RightToes
    SpineDummy Spine
    Spine Spine1
    Spine1 HEadDummy LeftShoulder1Dummy RightShoulderDummy
    HEadDummy HEad
    LeftShoulder1Dummy LeftShoulder1
    LeftShoulder1 LeftArm
    LeftArm LeftForeArm
    LeftForeArm LeftHand
    RightShoulderDummy RightShoulder
    RightShoulder RightArm
    RightArm RightForeArm
    RightForeArm RightHand
    LeftUpLegDummy LeftUpLeg
    LeftUpLeg LeftLeg
    LeftLeg LeftFoot
    LeftFoot LeftToes
  end

:SAMPLES-PER-SECOND 30
:FULLY-SPECIFIED
:DEGREES
149
root  29.4103 39.2033 1.02619 153.784 83.7751 156.987
RightUpLeg  -24.9078 -2.4753 -2.09505
RightLeg  32.9901 10.4906 0.528357
RightFoot  1.98005 -0.713437 5.39576
RightToes  -6.40286e-010 -1.59028e-015 9.93923e-017
Spine  -6.35339 -5.13946 -9.66617
Spine1  11.8134 -6.05652 2.83479
HEad  -7.84178 2.60101 -0.205954
LeftShoulder1  9.93923e-017 0 1.22299e-017
LeftArm  32.0137 22.2938 -77.9696
LeftForeArm  -48.5128 -29.4597 18.5467
LeftHand  0.864399 5.95629 -2.67397
RightShoulder  1.98785e-016 -4.96962e-017 1.55301e-017
RightArm  22.0003 -57.5994 74.6717
RightForeArm  -39.4326 18.96 -9.35957
RightHand  0.983064 -9.62555 -3.36991
LeftUpLeg  -1.48955 -0.0554463 -4.01319
LeftLeg  13.9454 -13.0801 0.511574
LeftFoot  -10.9202 -0.0731318 1.9074
LeftToes  8.73142e-011 -6.07963e-011 6.03181e-012
150
root  30.8382 39.1685 1.0838 155.708 83.9139 158.723
RightUpLeg  -25.1546 -2.36808 -2.28544
RightLeg  21.9026 10.1505 0.447138
RightFoot  1.57296 -0.650336 5.05947
RightToes  -6.40286e-010 -1.59028e-015 9.93923e-017
Spine  -7.29302 -5.50266 -9.40569
Spine1  12.299 -6.35927 3.27304
HEad  -7.27504 2.89833 -0.219322
LeftShoulder1  9.93923e-017 0 1.22299e-017
LeftArm  29.3246 21.1708 -77.4816
LeftForeArm  -46.4011 -31.4625 19.4782
LeftHand  0.872633 6.0773 -2.04656
RightShoulder  1.98785e-016 -4.96962e-017 1.55301e-017
RightArm  16.1066 -58.3429 73.0633
RightForeArm  -34.5966 18.1405 -7.1946
RightHand  0.99636 -9.72075 -3.42284
LeftUpLeg  1.03805 0.183035 -3.33313
LeftLeg  13.1303 -13.3247 0.758455
LeftFoot  -12.3914 -0.0488712 1.51328
LeftToes  8.73142e-011 -6.07963e-011 6.03181e-012
151
root  32.3049 39.1151 1.14553 158.224 84.2295 160.87
RightUpLeg  -24.4017 -0.909881 -2.74073
RightLeg  9.18979 9.40618 0.544081
RightFoot  1.91908 -0.646179 4.91055
RightToes  -6.40286e-010 -1.59028e-015 9.93923e-017
Spine  -8.64188 -5.78055 -8.64558
Spine1  13.0133 -6.57188 3.46964
HEad  -6.63222 3.05111 -0.41275
LeftShoulder1  9.93923e-017 0 1.22299e-017
LeftArm  27.0948 20.9477 -77.1772
LeftForeArm  -45.8201 -33.0289 20.1874
LeftHand  0.906277 6.34818 -2.10824
RightShoulder  1.98785e-016 -4.96962e-017 1.55301e-017
RightArm  12.8636 -59.2555 71.8034
RightForeArm  -32.796 17.7035 -6.39667
RightHand  1.01144 -9.80371 -3.58242
LeftUpLeg  3.57263 0.353208 -2.56378
LeftLeg  11.9164 -13.2232 1.07071
LeftFoot  -13.6058 -0.0372245 1.38176
LeftToes  8.73142e-011 -6.07963e-011 6.03181e-012
152
root  33.8472 38.961 1.23388 161.551 84.2082 163.743
RightUpLeg  -23.516 0.831114 -3.63292
RightLeg  -2.28503 7.94232 0.841782
RightFoot  2.28484 -0.652013 4.83577
RightToes  -6.40286e-010 -1.59028e-015 9.93923e-017
Spine  -10.1819 -6.17286 -7.97934
Spine1  13.8471 -6.92828 3.58919
HEad  -6.37384 3.12663 -0.811536
LeftShoulder1  9.93923e-017 0 1.22299e-017
LeftArm  25.6259 21.4512 -77.1535
LeftForeArm  -45.6279 -33.9952 20.63
LeftHand  0.92339 6.48399 -2.18151
RightShoulder  1.98785e-016 -4.96962e-017 1.55301e-017
RightArm  12.6395 -60.118 70.8659
RightForeArm  -33.0933 17.7461 -6.68562
RightHand  1.00945 -9.77468 -3.6365
LeftUpLeg  5.89435 0.517476 -1.7687
LeftLeg  11.1106 -13.1322 1.38883
LeftFoot  -15.2159 -0.0351617 0.687466
LeftToes  8.73142e-011 -6.07963e-011 6.03181e-012
